<svg width="1000" height="1000" viewBox="0 0 1000 1000" fill="none" xmlns="http://www.w3.org/2000/svg">
<path d="M821.499 721.35C824.748 722.827 828.046 724.796 831.393 727.257C834.839 729.62 837.891 732.721 840.549 736.56C843.305 740.301 845.57 744.879 847.342 750.294C849.114 755.61 850 761.96 850 769.344C850 778.401 848.622 786.031 845.865 792.233C843.108 798.337 839.515 803.407 835.085 807.444C830.753 811.48 825.88 814.581 820.465 816.747C815.05 818.913 809.636 820.538 804.221 821.621C798.905 822.605 793.835 823.196 789.011 823.393C784.285 823.491 780.446 823.54 777.492 823.54H766.417V715H777.492C780.642 715 783.99 715.049 787.534 715.148C791.176 715.148 794.918 715.345 798.757 715.738C802.597 716.132 806.436 716.772 810.276 717.658C814.115 718.544 817.856 719.775 821.499 721.35ZM788.715 800.946C795.705 800.454 801.661 799.519 806.584 798.14C811.506 796.664 815.543 794.645 818.693 792.086C821.843 789.526 824.108 786.376 825.486 782.635C826.963 778.894 827.701 774.463 827.701 769.344C827.701 763.339 826.914 758.367 825.338 754.429C823.763 750.491 821.351 747.341 818.102 744.978C814.854 742.517 810.768 740.744 805.845 739.662C801.021 738.579 795.311 737.889 788.715 737.594V800.946Z" fill="black"/>
<path d="M728.756 784.997C731.611 787.557 734.072 790.461 736.14 793.71C738.207 796.861 739.881 800.159 741.161 803.604C742.539 806.952 743.524 810.348 744.114 813.794C744.705 817.24 745 820.488 745 823.54H733.925H722.702C722.702 822.851 722.603 821.719 722.406 820.144C722.308 818.47 722.012 816.649 721.52 814.68C721.028 812.711 720.29 810.693 719.305 808.625C718.321 806.558 716.942 804.638 715.17 802.866C713.497 801.094 711.38 799.666 708.82 798.583C706.261 797.501 703.159 796.959 699.517 796.959H672.788V823.54H650.637V715H699.517C699.911 715 700.994 715.098 702.766 715.295C704.538 715.394 706.654 715.837 709.116 716.624C711.675 717.314 714.432 718.396 717.385 719.873C720.339 721.35 723.194 723.467 725.95 726.223C734.122 734.395 738.207 745.618 738.207 759.893C738.207 765.504 737.321 770.378 735.549 774.513C733.876 778.647 731.611 782.142 728.756 784.997ZM699.517 774.66C700.698 774.66 702.224 774.513 704.095 774.217C705.965 773.823 707.787 773.134 709.559 772.15C711.331 771.067 712.807 769.59 713.989 767.72C715.269 765.751 715.909 763.142 715.909 759.893C715.909 754.774 715.219 750.737 713.841 747.784C712.561 744.732 710.986 742.467 709.116 740.991C707.344 739.415 705.522 738.431 703.652 738.037C701.781 737.545 700.354 737.299 699.369 737.299H672.788V774.66H699.517Z" fill="black"/>
<path d="M593.588 715.296H616.035V823.541H593.588V715.296Z" fill="black"/>
<path d="M552.636 765.653C556.377 767.819 559.282 770.428 561.349 773.479C563.417 776.531 564.893 779.485 565.779 782.34C566.764 785.096 567.355 787.508 567.551 789.576C567.748 791.643 567.847 792.776 567.847 792.972C567.847 798.19 567.059 802.571 565.484 806.115C564.007 809.561 561.989 812.416 559.429 814.68C556.968 816.945 554.113 818.717 550.864 819.997C547.615 821.178 544.268 822.064 540.822 822.655C537.377 823.147 533.931 823.393 530.485 823.393C527.04 823.492 523.889 823.541 521.034 823.541H483.525V715.296H521.034C524.677 715.296 528.615 715.936 532.848 717.216C537.18 718.397 541.167 720.415 544.81 723.27C548.452 726.027 551.504 729.669 553.965 734.198C556.427 738.628 557.657 744.043 557.657 750.442C557.657 752.411 557.51 754.085 557.214 755.463C557.017 756.743 556.673 757.974 556.18 759.155C555.787 760.238 555.294 761.272 554.704 762.256C554.113 763.241 553.424 764.373 552.636 765.653ZM506.71 758.712H521.034C522.215 758.712 523.594 758.761 525.169 758.86C526.744 758.86 528.172 758.712 529.452 758.417C530.83 758.023 531.962 757.235 532.848 756.054C533.832 754.873 534.325 753.002 534.325 750.442C534.325 747.686 533.783 745.52 532.7 743.945C531.617 742.369 530.338 741.188 528.861 740.4C527.384 739.613 525.907 739.121 524.431 738.924C522.954 738.727 521.822 738.628 521.034 738.628H506.71V758.712ZM522.954 800.356C529.648 800.356 534.472 799.765 537.426 798.584C540.478 797.304 542.004 794.892 542.004 791.348C542.004 787.902 540.478 785.589 537.426 784.407C534.472 783.226 529.648 782.635 522.954 782.635H506.71V800.356H522.954Z" fill="black"/>
<path d="M457.311 715.148V737.594H432.206V823.541H409.612V737.594H384.508V715.148H457.311Z" fill="black"/>
<path d="M342.715 823.541L337.103 807.592H293.392L287.78 823.541H263.266L301.957 715.148H328.538L367.229 823.541H342.715ZM301.366 785.293H329.129L315.247 746.455L301.366 785.293Z" fill="black"/>
<path d="M249.975 797.697C247.612 801.537 244.807 805.032 241.558 808.182C238.309 811.333 234.716 814.04 230.778 816.304C226.84 818.569 222.606 820.341 218.078 821.621C213.549 822.802 208.873 823.393 204.049 823.393C196.567 823.393 189.527 821.965 182.931 819.11C176.434 816.255 170.724 812.366 165.801 807.444C160.977 802.521 157.138 796.811 154.283 790.314C151.428 783.718 150 776.678 150 769.196C150 761.714 151.428 754.724 154.283 748.227C157.138 741.631 160.977 735.871 165.801 730.949C170.724 726.026 176.434 722.138 182.931 719.283C189.527 716.428 196.567 715 204.049 715C208.873 715 213.549 715.64 218.078 716.92C222.606 718.101 226.84 719.824 230.778 722.088C234.716 724.353 238.309 727.109 241.558 730.358C244.807 733.508 247.612 737.003 249.975 740.843L233.436 757.382C232.254 754.429 230.679 751.722 228.71 749.26C226.84 746.799 224.625 744.682 222.065 742.91C219.505 741.138 216.699 739.76 213.647 738.776C210.596 737.791 207.396 737.299 204.049 737.299C199.717 737.299 195.582 738.136 191.644 739.809C187.805 741.483 184.457 743.796 181.602 746.75C178.747 749.605 176.483 752.952 174.809 756.792C173.136 760.631 172.299 764.766 172.299 769.196C172.299 773.627 173.136 777.761 174.809 781.601C176.483 785.44 178.747 788.837 181.602 791.79C184.457 794.645 187.805 796.91 191.644 798.583C195.582 800.257 199.717 801.094 204.049 801.094C207.396 801.094 210.596 800.602 213.647 799.617C216.699 798.633 219.505 797.254 222.065 795.482C224.625 793.71 226.84 791.643 228.71 789.28C230.679 786.819 232.254 784.111 233.436 781.158L249.975 797.697Z" fill="black"/>
<path d="M501.206 224.732C404.968 224.732 326.951 302.749 326.951 398.987C326.951 495.226 404.968 573.243 501.206 573.243L501.206 224.732Z" fill="#9747FF"/>
<path d="M340.606 176C293.101 258.282 321.293 363.495 403.574 411L489.59 262.016L340.606 176Z" fill="#9747FF"/>
<ellipse cx="499.729" cy="398.988" rx="116.662" ry="116.662" fill="white"/>
<path d="M501.206 573.243C597.445 573.243 675.461 495.226 675.461 398.987L501.206 398.987L501.206 573.243Z" fill="#FFC700"/>
<path d="M703.52 427.046C703.52 315.311 612.941 224.732 501.206 224.732L501.206 427.046L703.52 427.046Z" fill="#FFE600"/>
<circle cx="456.904" cy="393.08" r="17.7209" fill="black"/>
</svg>
