<svg width="500" height="500" viewBox="0 0 500 500" fill="none" xmlns="http://www.w3.org/2000/svg">
<path d="M399.1 342.656C400.605 343.34 402.133 344.252 403.684 345.392C405.28 346.487 406.694 347.924 407.925 349.703C409.203 351.436 410.252 353.557 411.073 356.065C411.894 358.528 412.304 361.47 412.304 364.891C412.304 369.087 411.665 372.622 410.388 375.495C409.111 378.323 407.446 380.672 405.394 382.542C403.387 384.412 401.129 385.849 398.621 386.853C396.112 387.856 393.604 388.609 391.095 389.11C388.632 389.566 386.283 389.84 384.048 389.931C381.859 389.977 380.08 390 378.712 390H373.581V339.714H378.712C380.171 339.714 381.722 339.737 383.364 339.782C385.052 339.782 386.785 339.874 388.564 340.056C390.342 340.238 392.121 340.535 393.9 340.945C395.679 341.356 397.412 341.926 399.1 342.656ZM383.911 379.532C387.15 379.304 389.909 378.871 392.19 378.232C394.47 377.548 396.34 376.613 397.8 375.427C399.259 374.241 400.308 372.782 400.947 371.048C401.631 369.315 401.973 367.263 401.973 364.891C401.973 362.109 401.608 359.805 400.879 357.981C400.149 356.157 399.031 354.697 397.526 353.602C396.021 352.462 394.128 351.641 391.848 351.139C389.613 350.638 386.967 350.318 383.911 350.182V379.532Z" fill="black"/>
<path d="M356.132 372.143C357.455 373.329 358.595 374.674 359.553 376.18C360.511 377.639 361.287 379.167 361.879 380.763C362.518 382.314 362.974 383.888 363.248 385.484C363.521 387.081 363.658 388.586 363.658 390H358.527H353.327C353.327 389.68 353.282 389.156 353.191 388.426C353.145 387.651 353.008 386.807 352.78 385.895C352.552 384.982 352.21 384.047 351.754 383.09C351.298 382.132 350.659 381.242 349.838 380.421C349.063 379.6 348.082 378.939 346.896 378.437C345.71 377.936 344.274 377.685 342.586 377.685H330.203V390H319.94V339.714H342.586C342.769 339.714 343.27 339.759 344.091 339.851C344.912 339.896 345.893 340.102 347.033 340.466C348.219 340.786 349.496 341.287 350.864 341.972C352.233 342.656 353.555 343.636 354.833 344.913C358.618 348.699 360.511 353.899 360.511 360.512C360.511 363.112 360.101 365.37 359.28 367.286C358.504 369.201 357.455 370.82 356.132 372.143ZM342.586 367.354C343.133 367.354 343.84 367.286 344.707 367.149C345.574 366.966 346.417 366.647 347.238 366.191C348.059 365.689 348.744 365.005 349.291 364.138C349.884 363.226 350.18 362.017 350.18 360.512C350.18 358.141 349.861 356.271 349.222 354.902C348.63 353.488 347.9 352.439 347.033 351.755C346.212 351.025 345.368 350.569 344.502 350.387C343.635 350.159 342.974 350.045 342.518 350.045H330.203V367.354H342.586Z" fill="black"/>
<path d="M293.511 339.851H303.91V390H293.511V339.851Z" fill="black"/>
<path d="M274.538 363.181C276.271 364.184 277.616 365.393 278.574 366.807C279.532 368.221 280.216 369.589 280.627 370.912C281.083 372.189 281.357 373.307 281.448 374.264C281.539 375.222 281.585 375.747 281.585 375.838C281.585 378.255 281.22 380.285 280.49 381.927C279.806 383.523 278.871 384.846 277.685 385.895C276.545 386.944 275.222 387.765 273.717 388.358C272.212 388.905 270.661 389.316 269.064 389.59C267.468 389.818 265.872 389.932 264.275 389.932C262.679 389.977 261.219 390 259.897 390H242.519V339.851H259.897C261.584 339.851 263.409 340.148 265.37 340.74C267.377 341.288 269.224 342.223 270.912 343.546C272.599 344.823 274.013 346.51 275.153 348.608C276.294 350.661 276.864 353.169 276.864 356.134C276.864 357.046 276.795 357.822 276.659 358.46C276.567 359.053 276.408 359.623 276.18 360.171C275.997 360.672 275.769 361.151 275.496 361.607C275.222 362.063 274.903 362.588 274.538 363.181ZM253.26 359.965H259.897C260.444 359.965 261.083 359.988 261.812 360.034C262.542 360.034 263.203 359.965 263.796 359.829C264.435 359.646 264.959 359.281 265.37 358.734C265.826 358.187 266.054 357.32 266.054 356.134C266.054 354.857 265.803 353.854 265.302 353.124C264.8 352.394 264.207 351.847 263.523 351.482C262.839 351.117 262.154 350.889 261.47 350.798C260.786 350.706 260.262 350.661 259.897 350.661H253.26V359.965ZM260.786 379.259C263.888 379.259 266.123 378.985 267.491 378.438C268.905 377.845 269.612 376.727 269.612 375.085C269.612 373.489 268.905 372.417 267.491 371.87C266.123 371.322 263.888 371.049 260.786 371.049H253.26V379.259H260.786Z" fill="black"/>
<path d="M230.374 339.783V350.182H218.743V390H208.276V350.182H196.645V339.783H230.374Z" fill="black"/>
<path d="M177.283 390L174.683 382.611H154.432L151.832 390H140.475L158.4 339.783H170.715L188.64 390H177.283ZM158.126 372.28H170.989L164.558 354.287L158.126 372.28Z" fill="black"/>
<path d="M134.318 378.027C133.223 379.806 131.923 381.425 130.418 382.884C128.913 384.344 127.248 385.598 125.424 386.647C123.599 387.696 121.638 388.517 119.54 389.11C117.442 389.658 115.275 389.931 113.04 389.931C109.574 389.931 106.313 389.27 103.257 387.947C100.246 386.624 97.601 384.823 95.3205 382.542C93.0856 380.262 91.3068 377.616 89.9841 374.606C88.6614 371.55 88 368.289 88 364.823C88 361.356 88.6614 358.118 89.9841 355.107C91.3068 352.052 93.0856 349.383 95.3205 347.103C97.601 344.822 100.246 343.021 103.257 341.698C106.313 340.375 109.574 339.714 113.04 339.714C115.275 339.714 117.442 340.01 119.54 340.603C121.638 341.151 123.599 341.949 125.424 342.998C127.248 344.047 128.913 345.324 130.418 346.829C131.923 348.289 133.223 349.908 134.318 351.687L126.655 359.349C126.108 357.981 125.378 356.727 124.466 355.586C123.599 354.446 122.573 353.465 121.387 352.644C120.201 351.824 118.901 351.185 117.487 350.729C116.073 350.273 114.591 350.045 113.04 350.045C111.033 350.045 109.118 350.432 107.293 351.208C105.514 351.983 103.964 353.055 102.641 354.423C101.318 355.746 100.269 357.297 99.4939 359.076C98.7185 360.854 98.3308 362.77 98.3308 364.823C98.3308 366.875 98.7185 368.791 99.4939 370.569C100.269 372.348 101.318 373.922 102.641 375.29C103.964 376.613 105.514 377.662 107.293 378.437C109.118 379.213 111.033 379.6 113.04 379.6C114.591 379.6 116.073 379.372 117.487 378.916C118.901 378.46 120.201 377.822 121.387 377.001C122.573 376.18 123.599 375.222 124.466 374.127C125.378 372.987 126.108 371.733 126.655 370.364L134.318 378.027Z" fill="black"/>
<path d="M250.711 112.577C206.124 112.577 169.98 148.722 169.98 193.308C169.98 237.895 206.124 274.039 250.711 274.039L250.711 112.577Z" fill="#9747FF"/>
<path d="M176.306 90.0001C154.298 128.12 167.359 176.865 205.479 198.873L245.329 129.85L176.306 90.0001Z" fill="#9747FF"/>
<ellipse cx="250.027" cy="193.308" rx="54.0487" ry="54.0486" fill="white"/>
<path d="M250.711 274.039C295.297 274.039 331.441 237.895 331.441 193.308L250.711 193.308L250.711 274.039Z" fill="#FFC700"/>
<path d="M344.44 206.307C344.44 154.541 302.476 112.577 250.71 112.577L250.71 206.307L344.44 206.307Z" fill="#FFE600"/>
<circle cx="230.186" cy="190.571" r="8.20992" fill="black"/>
</svg>
