<svg width="50" height="50" viewBox="0 0 50 50" fill="none" xmlns="http://www.w3.org/2000/svg">
<path d="M44.4802 38.6872C44.6809 38.7784 44.8846 38.9 45.0914 39.0521C45.3043 39.198 45.4928 39.3896 45.657 39.6268C45.8273 39.8579 45.9671 40.1406 46.0766 40.4751C46.1861 40.8035 46.2408 41.1958 46.2408 41.6519C46.2408 42.2114 46.1557 42.6827 45.9854 43.0658C45.8151 43.4429 45.5931 43.7561 45.3195 44.0054C45.0519 44.2548 44.7508 44.4463 44.4164 44.5801C44.0819 44.7139 43.7474 44.8143 43.4129 44.8812C43.0845 44.942 42.7713 44.9785 42.4733 44.9906C42.1814 44.9967 41.9442 44.9997 41.7618 44.9997H41.0776V38.2949H41.7618C41.9564 38.2949 42.1632 38.298 42.3821 38.304C42.6071 38.304 42.8382 38.3162 43.0754 38.3405C43.3126 38.3649 43.5498 38.4044 43.7869 38.4591C44.0241 38.5139 44.2552 38.5899 44.4802 38.6872ZM42.4551 43.6041C42.8869 43.5736 43.2548 43.5159 43.5589 43.4307C43.863 43.3395 44.1123 43.2148 44.3069 43.0567C44.5015 42.8986 44.6414 42.704 44.7265 42.4729C44.8177 42.2418 44.8634 41.9681 44.8634 41.6519C44.8634 41.2809 44.8147 40.9738 44.7174 40.7306C44.6201 40.4873 44.4711 40.2927 44.2704 40.1467C44.0697 39.9947 43.8173 39.8852 43.5133 39.8183C43.2153 39.7514 42.8626 39.7089 42.4551 39.6906V43.6041Z" fill="black"/>
<path d="M38.7509 42.6189C38.9273 42.777 39.0793 42.9564 39.2071 43.1571C39.3348 43.3517 39.4382 43.5554 39.5172 43.7683C39.6024 43.975 39.6632 44.1848 39.6997 44.3977C39.7361 44.6105 39.7544 44.8112 39.7544 44.9997H39.0702H38.3769C38.3769 44.9572 38.3709 44.8872 38.3587 44.7899C38.3526 44.6866 38.3344 44.574 38.304 44.4524C38.2735 44.3308 38.2279 44.2061 38.1671 44.0784C38.1063 43.9507 38.0212 43.8321 37.9117 43.7226C37.8083 43.6132 37.6776 43.525 37.5194 43.4581C37.3613 43.3912 37.1698 43.3578 36.9447 43.3578H35.2936V44.9997H33.9253V38.2949H36.9447C36.9691 38.2949 37.036 38.301 37.1454 38.3132C37.2549 38.3192 37.3857 38.3466 37.5377 38.3953C37.6958 38.4378 37.8661 38.5047 38.0485 38.596C38.231 38.6872 38.4073 38.8179 38.5776 38.9882C39.0824 39.493 39.3348 40.1863 39.3348 41.0681C39.3348 41.4147 39.28 41.7158 39.1706 41.9712C39.0672 42.2266 38.9273 42.4425 38.7509 42.6189ZM36.9447 41.9803C37.0177 41.9803 37.112 41.9712 37.2275 41.9529C37.3431 41.9286 37.4556 41.886 37.5651 41.8252C37.6745 41.7583 37.7657 41.6671 37.8387 41.5516C37.9178 41.4299 37.9573 41.2688 37.9573 41.0681C37.9573 40.7518 37.9147 40.5025 37.8296 40.3201C37.7505 40.1315 37.6532 39.9917 37.5377 39.9004C37.4282 39.8031 37.3157 39.7423 37.2002 39.718C37.0846 39.6876 36.9964 39.6724 36.9356 39.6724H35.2936V41.9803H36.9447Z" fill="black"/>
<path d="M30.4019 38.3135H31.7884V45.0001H30.4019V38.3135Z" fill="black"/>
<path d="M27.8717 41.4242C28.1028 41.5579 28.2822 41.7191 28.4099 41.9076C28.5377 42.0962 28.6289 42.2786 28.6836 42.455C28.7444 42.6252 28.7809 42.7742 28.7931 42.902C28.8052 43.0297 28.8113 43.0996 28.8113 43.1118C28.8113 43.4341 28.7627 43.7047 28.6654 43.9236C28.5741 44.1365 28.4495 44.3129 28.2914 44.4527C28.1393 44.5926 27.963 44.7021 27.7623 44.7811C27.5616 44.8541 27.3548 44.9088 27.142 44.9453C26.9291 44.9757 26.7163 44.9909 26.5034 44.9909C26.2906 44.997 26.0959 45.0001 25.9196 45.0001H23.6025V38.3135H25.9196C26.1446 38.3135 26.3879 38.353 26.6494 38.4321C26.9169 38.505 27.1632 38.6297 27.3883 38.8061C27.6133 38.9764 27.8018 39.2014 27.9538 39.4811C28.1059 39.7548 28.1819 40.0893 28.1819 40.4846C28.1819 40.6062 28.1728 40.7096 28.1545 40.7947C28.1424 40.8738 28.1211 40.9498 28.0907 41.0228C28.0663 41.0897 28.0359 41.1535 27.9994 41.2143C27.963 41.2752 27.9204 41.3451 27.8717 41.4242ZM25.0347 40.9954H25.9196C25.9926 40.9954 26.0777 40.9984 26.175 41.0045C26.2723 41.0045 26.3605 40.9954 26.4395 40.9772C26.5247 40.9528 26.5946 40.9042 26.6494 40.8312C26.7102 40.7582 26.7406 40.6427 26.7406 40.4846C26.7406 40.3143 26.7071 40.1805 26.6402 40.0832C26.5733 39.9859 26.4943 39.9129 26.4031 39.8643C26.3118 39.8156 26.2206 39.7852 26.1294 39.773C26.0382 39.7609 25.9682 39.7548 25.9196 39.7548H25.0347V40.9954ZM26.0382 43.5679C26.4517 43.5679 26.7497 43.5314 26.9321 43.4584C27.1207 43.3793 27.2149 43.2304 27.2149 43.0114C27.2149 42.7986 27.1207 42.6557 26.9321 42.5827C26.7497 42.5097 26.4517 42.4732 26.0382 42.4732H25.0347V43.5679H26.0382Z" fill="black"/>
<path d="M21.9831 38.3042V39.6908H20.4323V44.9999H19.0366V39.6908H17.4858V38.3042H21.9831Z" fill="black"/>
<path d="M14.9048 44.9999L14.5582 44.0147H11.858L11.5114 44.9999H9.99707L12.3871 38.3042H14.0291L16.4191 44.9999H14.9048ZM12.3506 42.6373H14.0656L13.2081 40.2381L12.3506 42.6373Z" fill="black"/>
<path d="M9.17574 43.4034C9.02978 43.6405 8.85646 43.8564 8.65577 44.051C8.45508 44.2456 8.23311 44.4129 7.98985 44.5528C7.74659 44.6926 7.48509 44.8021 7.20534 44.8812C6.92559 44.9541 6.63672 44.9906 6.33873 44.9906C5.87654 44.9906 5.44171 44.9024 5.03425 44.7261C4.63288 44.5497 4.28015 44.3095 3.97608 44.0054C3.67808 43.7014 3.44091 43.3486 3.26454 42.9473C3.08818 42.5398 3 42.105 3 41.6428C3 41.1806 3.08818 40.7488 3.26454 40.3474C3.44091 39.94 3.67808 39.5842 3.97608 39.2801C4.28015 38.976 4.63288 38.7358 5.03425 38.5595C5.44171 38.3831 5.87654 38.2949 6.33873 38.2949C6.63672 38.2949 6.92559 38.3345 7.20534 38.4135C7.48509 38.4865 7.74659 38.5929 7.98985 38.7328C8.23311 38.8727 8.45508 39.0429 8.65577 39.2436C8.85646 39.4382 9.02978 39.6541 9.17574 39.8913L8.15405 40.913C8.08107 40.7306 7.98377 40.5633 7.86214 40.4113C7.74659 40.2592 7.60976 40.1285 7.45164 40.019C7.29352 39.9096 7.1202 39.8244 6.93167 39.7636C6.74315 39.7028 6.5455 39.6724 6.33873 39.6724C6.07115 39.6724 5.81572 39.7241 5.57246 39.8275C5.33529 39.9308 5.12852 40.0738 4.95215 40.2562C4.77579 40.4326 4.63592 40.6393 4.53253 40.8765C4.42915 41.1137 4.37745 41.3691 4.37745 41.6428C4.37745 41.9164 4.42915 42.1719 4.53253 42.409C4.63592 42.6462 4.77579 42.856 4.95215 43.0385C5.12852 43.2148 5.33529 43.3547 5.57246 43.4581C5.81572 43.5615 6.07115 43.6132 6.33873 43.6132C6.5455 43.6132 6.74315 43.5828 6.93167 43.522C7.1202 43.4611 7.29352 43.376 7.45164 43.2665C7.60976 43.1571 7.74659 43.0294 7.86214 42.8834C7.98377 42.7314 8.08107 42.5641 8.15405 42.3817L9.17574 43.4034Z" fill="black"/>
<path d="M24.6949 8.01015C18.75 8.01015 13.9307 12.8295 13.9307 18.7744C13.9307 24.7193 18.75 29.5386 24.6949 29.5386L24.6949 8.01015Z" fill="#9747FF"/>
<path d="M14.7739 5C11.8394 10.0827 13.5808 16.582 18.6636 19.5166L23.977 10.3134L14.7739 5Z" fill="#9747FF"/>
<ellipse cx="24.6035" cy="18.7744" rx="7.20655" ry="7.20655" fill="white"/>
<path d="M24.6948 29.5386C30.6397 29.5386 35.459 24.7193 35.459 18.7744L24.6948 18.7744L24.6948 29.5386Z" fill="#FFC700"/>
<path d="M37.1919 20.5077C37.1919 13.6055 31.5966 8.01025 24.6945 8.01025L24.6945 20.5077L37.1919 20.5077Z" fill="#FFE600"/>
<ellipse cx="21.9579" cy="18.4096" rx="1.09467" ry="1.09467" fill="black"/>
</svg>
