<svg width="250" height="250" viewBox="0 0 250 250" fill="none" xmlns="http://www.w3.org/2000/svg">
<path d="M199.55 176.327C200.302 176.669 201.066 177.126 201.842 177.696C202.64 178.243 203.347 178.961 203.962 179.851C204.601 180.717 205.126 181.778 205.536 183.032C205.947 184.264 206.152 185.735 206.152 187.445C206.152 189.543 205.832 191.31 205.194 192.747C204.555 194.161 203.723 195.336 202.697 196.271C201.693 197.206 200.564 197.924 199.31 198.426C198.056 198.927 196.802 199.304 195.547 199.555C194.316 199.783 193.141 199.92 192.024 199.965C190.929 199.988 190.04 199.999 189.356 199.999H186.79V174.856H189.356C190.085 174.856 190.861 174.868 191.682 174.891C192.526 174.891 193.392 174.936 194.282 175.027C195.171 175.119 196.06 175.267 196.95 175.472C197.839 175.677 198.706 175.963 199.55 176.327ZM191.955 194.766C193.575 194.651 194.954 194.435 196.095 194.116C197.235 193.773 198.17 193.306 198.9 192.713C199.629 192.12 200.154 191.39 200.473 190.524C200.815 189.657 200.986 188.631 200.986 187.445C200.986 186.054 200.804 184.902 200.439 183.99C200.074 183.078 199.515 182.348 198.763 181.801C198.01 181.231 197.064 180.82 195.924 180.569C194.806 180.318 193.483 180.159 191.955 180.09V194.766Z" fill="black"/>
<path d="M178.066 191.071C178.728 191.664 179.298 192.337 179.777 193.089C180.256 193.819 180.643 194.583 180.94 195.381C181.259 196.157 181.487 196.943 181.624 197.742C181.761 198.54 181.829 199.292 181.829 199.999H179.264H176.664C176.664 199.84 176.641 199.577 176.595 199.213C176.573 198.825 176.504 198.403 176.39 197.947C176.276 197.491 176.105 197.023 175.877 196.544C175.649 196.065 175.33 195.621 174.919 195.21C174.531 194.8 174.041 194.469 173.448 194.218C172.855 193.967 172.137 193.842 171.293 193.842H165.101V199.999H159.97V174.856H171.293C171.384 174.856 171.635 174.879 172.046 174.925C172.456 174.948 172.946 175.05 173.517 175.233C174.11 175.392 174.748 175.643 175.432 175.985C176.116 176.327 176.778 176.818 177.416 177.456C179.309 179.349 180.256 181.949 180.256 185.256C180.256 186.556 180.05 187.684 179.64 188.642C179.252 189.6 178.728 190.41 178.066 191.071ZM171.293 188.676C171.567 188.676 171.92 188.642 172.354 188.574C172.787 188.483 173.209 188.323 173.619 188.095C174.03 187.844 174.372 187.502 174.645 187.069C174.942 186.613 175.09 186.008 175.09 185.256C175.09 184.07 174.931 183.135 174.611 182.451C174.315 181.744 173.95 181.219 173.517 180.877C173.106 180.512 172.684 180.284 172.251 180.193C171.818 180.079 171.487 180.022 171.259 180.022H165.101V188.676H171.293Z" fill="black"/>
<path d="M146.755 174.925H151.955V200H146.755V174.925Z" fill="black"/>
<path d="M137.269 186.59C138.136 187.092 138.808 187.696 139.287 188.403C139.766 189.11 140.108 189.794 140.314 190.456C140.542 191.094 140.679 191.653 140.724 192.132C140.77 192.611 140.793 192.873 140.793 192.919C140.793 194.127 140.61 195.142 140.245 195.963C139.903 196.761 139.436 197.423 138.843 197.947C138.273 198.472 137.611 198.882 136.859 199.179C136.106 199.452 135.331 199.658 134.532 199.795C133.734 199.909 132.936 199.966 132.138 199.966C131.34 199.988 130.61 200 129.949 200H121.26V174.925H129.949C130.792 174.925 131.705 175.074 132.685 175.37C133.689 175.644 134.612 176.111 135.456 176.773C136.3 177.411 137.007 178.255 137.577 179.304C138.147 180.33 138.432 181.584 138.432 183.067C138.432 183.523 138.398 183.911 138.33 184.23C138.284 184.526 138.204 184.811 138.09 185.085C137.999 185.336 137.885 185.575 137.748 185.803C137.611 186.031 137.452 186.294 137.269 186.59ZM126.63 184.982H129.949C130.222 184.982 130.542 184.994 130.906 185.017C131.271 185.017 131.602 184.982 131.898 184.914C132.218 184.823 132.48 184.64 132.685 184.367C132.913 184.093 133.027 183.66 133.027 183.067C133.027 182.428 132.902 181.927 132.651 181.562C132.4 181.197 132.104 180.923 131.762 180.741C131.42 180.558 131.077 180.444 130.735 180.399C130.393 180.353 130.131 180.33 129.949 180.33H126.63V184.982ZM130.393 194.629C131.944 194.629 133.062 194.492 133.746 194.219C134.453 193.922 134.806 193.363 134.806 192.542C134.806 191.744 134.453 191.208 133.746 190.935C133.062 190.661 131.944 190.524 130.393 190.524H126.63V194.629H130.393Z" fill="black"/>
<path d="M115.187 174.891V180.09H109.371V199.999H104.138V180.09H98.3223V174.891H115.187Z" fill="black"/>
<path d="M88.6412 199.999L87.3413 196.305H77.2157L75.9158 199.999H70.2373L79.1998 174.891H85.3572L94.3197 199.999H88.6412ZM79.063 191.139H85.4941L82.2785 182.143L79.063 191.139Z" fill="black"/>
<path d="M67.1588 194.013C66.6115 194.902 65.9615 195.712 65.209 196.442C64.4564 197.171 63.624 197.799 62.7118 198.323C61.7996 198.848 60.8189 199.258 59.7699 199.555C58.7208 199.828 57.6376 199.965 56.5201 199.965C54.7869 199.965 53.1563 199.634 51.6284 198.973C50.1232 198.312 48.8005 197.411 47.6603 196.271C46.5428 195.13 45.6534 193.808 44.992 192.303C44.3307 190.775 44 189.144 44 187.411C44 185.678 44.3307 184.058 44.992 182.553C45.6534 181.025 46.5428 179.691 47.6603 178.551C48.8005 177.411 50.1232 176.51 51.6284 175.848C53.1563 175.187 54.7869 174.856 56.5201 174.856C57.6376 174.856 58.7208 175.005 59.7699 175.301C60.8189 175.575 61.7996 175.974 62.7118 176.498C63.624 177.023 64.4564 177.662 65.209 178.414C65.9615 179.144 66.6115 179.953 67.1588 180.843L63.3275 184.674C63.0539 183.99 62.689 183.363 62.2329 182.793C61.7996 182.223 61.2864 181.732 60.6935 181.322C60.1006 180.911 59.4506 180.592 58.7437 180.364C58.0367 180.136 57.2955 180.022 56.5201 180.022C55.5167 180.022 54.5589 180.216 53.6467 180.603C52.7572 180.991 51.9819 181.527 51.3205 182.211C50.6592 182.873 50.1346 183.648 49.7469 184.537C49.3593 185.427 49.1654 186.385 49.1654 187.411C49.1654 188.437 49.3593 189.395 49.7469 190.284C50.1346 191.174 50.6592 191.96 51.3205 192.645C51.9819 193.306 52.7572 193.83 53.6467 194.218C54.5589 194.606 55.5167 194.8 56.5201 194.8C57.2955 194.8 58.0367 194.686 58.7437 194.458C59.4506 194.23 60.1006 193.91 60.6935 193.5C61.2864 193.089 61.7996 192.61 62.2329 192.063C62.689 191.493 63.0539 190.866 63.3275 190.182L67.1588 194.013Z" fill="black"/>
<path d="M125.356 61.2886C103.062 61.2886 84.9902 79.3609 84.9902 101.654C84.9902 123.947 103.062 142.02 125.356 142.02L125.356 61.2886Z" fill="#9747FF"/>
<path d="M88.1532 50.0003C77.1488 69.0604 83.6793 93.4325 102.739 104.437L122.665 69.9255L88.1532 50.0003Z" fill="#9747FF"/>
<ellipse cx="125.014" cy="101.654" rx="27.0243" ry="27.0243" fill="white"/>
<path d="M125.355 142.02C147.648 142.02 165.721 123.947 165.721 101.654L125.355 101.654L125.355 142.02Z" fill="#FFC700"/>
<path d="M172.22 108.154C172.22 82.2707 151.238 61.2886 125.355 61.2886L125.355 108.154L172.22 108.154Z" fill="#FFE600"/>
<circle cx="115.093" cy="100.286" r="4.10496" fill="black"/>
</svg>
