<svg width="1968" height="600" viewBox="0 0 1968 600" fill="none" xmlns="http://www.w3.org/2000/svg">
<g clip-path="url(#clip0_41_1750)">
<rect width="1968" height="600" fill="#BFFFFB"/>
<path d="M984.825 128C919.656 128 866.825 180.83 866.825 246C866.825 311.17 919.656 364 984.825 364L984.825 128Z" fill="#9747FF"/>
<path d="M876.073 94.9997C843.904 150.718 862.994 221.965 918.712 254.134L976.96 153.247L876.073 94.9997Z" fill="#9747FF"/>
<ellipse cx="983.825" cy="246" rx="79" ry="79" fill="white"/>
<path d="M984.825 364C1049.99 364 1102.83 311.17 1102.83 246L984.825 246L984.825 364Z" fill="#FFC700"/>
<path d="M1121.83 265C1121.83 189.337 1060.49 128 984.825 128L984.825 265L1121.83 265Z" fill="#FFE600"/>
<circle cx="954.825" cy="242" r="12" fill="black"/>
<path d="M1552.08 -9.50085C1615.03 -26.368 1652.39 -91.0718 1635.52 -154.021C1618.65 -216.97 1553.95 -254.326 1491 -237.459" stroke="#9747FF" stroke-width="31" stroke-linecap="round"/>
<path fill-rule="evenodd" clip-rule="evenodd" d="M1575.04 129.384C1603.74 86.4994 1596.05 29.6786 1558.8 -4.18737C1530.11 38.6967 1537.8 95.5176 1575.04 129.384Z" fill="#00B05B"/>
<path fill-rule="evenodd" clip-rule="evenodd" d="M1489.75 64.9109C1488 32.4328 1509.1 2.04798 1541.77 -6.70596L1543.18 -1.44936C1544.93 31.0287 1523.83 61.4135 1491.16 70.1675L1489.75 64.9109Z" fill="#00B05B"/>
<path fill-rule="evenodd" clip-rule="evenodd" d="M1639.8 99.8925C1655.05 50.5976 1631.44 -1.65673 1586.08 -23.4707C1570.83 25.8242 1594.44 78.0785 1639.8 99.8925Z" fill="#00B05B"/>
<path fill-rule="evenodd" clip-rule="evenodd" d="M1695.95 59.7614C1698.28 8.21538 1662.27 -36.4062 1612.87 -46.0873C1610.54 5.45872 1646.55 50.0803 1695.95 59.7614Z" fill="#00B05B"/>
<path fill-rule="evenodd" clip-rule="evenodd" d="M1739.76 -0.483909C1725.79 -50.1554 1677.59 -81.2096 1627.65 -74.8862C1641.62 -25.2147 1689.82 5.83946 1739.76 -0.483909Z" fill="#00B05B"/>
<path d="M1373.26 174.483C1409.57 309.986 1548.85 390.4 1684.35 354.092C1819.85 317.784 1900.27 178.503 1863.96 43.0001" stroke="#FFC700" stroke-width="31" stroke-linecap="round"/>
<path d="M1372.76 166.421C1316.66 -42.9462 1101.46 -167.194 892.093 -111.094C682.726 -54.9944 558.478 160.209 614.578 369.576" stroke="#FFC700" stroke-width="31" stroke-linecap="round"/>
<circle cx="1873" cy="2" r="131" fill="#0C8F50"/>
<circle cx="1373" cy="161" r="87" fill="#0C8F50"/>
<path d="M117 543.483C153.308 678.986 292.589 759.4 428.092 723.092C563.595 686.784 644.009 547.503 607.701 412" stroke="#FFC700" stroke-width="31" stroke-linecap="round"/>
<path fill-rule="evenodd" clip-rule="evenodd" d="M1755.14 189.692C1704.36 389.034 1808.88 592.333 1993.9 670.049C2044.68 470.707 1940.16 267.407 1755.14 189.692Z" fill="#0C8F50"/>
<path fill-rule="evenodd" clip-rule="evenodd" d="M1684.8 477.709C1722.61 612.137 1853.06 696.181 1988.21 679.068C1950.4 544.64 1819.95 460.596 1684.8 477.709Z" fill="#00B05B"/>
<path d="M1515.85 446.159C1458.64 479.19 1439.04 552.346 1472.07 609.558C1505.1 666.77 1578.26 686.372 1635.47 653.341" stroke="#FFC700" stroke-width="31" stroke-linecap="round"/>
<path fill-rule="evenodd" clip-rule="evenodd" d="M1456.93 316.195C1440.08 365.714 1462.53 419.332 1507.88 442.721C1524.72 393.202 1502.28 339.583 1456.93 316.195Z" fill="#00B05B"/>
<path fill-rule="evenodd" clip-rule="evenodd" d="M1557.36 356.947C1567.6 388.287 1554.91 423.574 1525.22 440.717L1522.46 435.939C1512.22 404.599 1524.91 369.312 1554.6 352.169L1557.36 356.947Z" fill="#00B05B"/>
<path fill-rule="evenodd" clip-rule="evenodd" d="M1581.73 449.912C1566.14 462.599 1543.73 465.067 1525.29 454.422L1532.81 441.401C1548.39 428.714 1570.8 426.246 1589.24 436.892L1581.73 449.912Z" fill="#00B05B"/>
<path fill-rule="evenodd" clip-rule="evenodd" d="M1401.26 362.061C1399.26 414.329 1436.09 459.301 1486.23 468.758C1488.23 416.49 1451.4 371.518 1401.26 362.061Z" fill="#00B05B"/>
<path fill-rule="evenodd" clip-rule="evenodd" d="M1356.82 416.086C1368.05 467.17 1415.02 501.414 1465.93 497.933C1454.69 446.848 1407.72 412.605 1356.82 416.086Z" fill="#00B05B"/>
<path fill-rule="evenodd" clip-rule="evenodd" d="M1329.72 486.571C1356.43 531.542 1411.78 549.302 1459.02 530.008C1432.31 485.038 1376.96 467.277 1329.72 486.571Z" fill="#00B05B"/>
<path fill-rule="evenodd" clip-rule="evenodd" d="M1325.19 560.249C1363.35 596.022 1421.45 597.698 1461.46 566.033C1423.3 530.261 1365.2 528.584 1325.19 560.249Z" fill="#00B05B"/>
<path fill-rule="evenodd" clip-rule="evenodd" d="M1345.93 648.453C1396.62 661.364 1448.31 634.787 1468.07 587.741C1417.38 574.83 1365.69 601.406 1345.93 648.453Z" fill="#00B05B"/>
<circle cx="608" cy="388" r="63" fill="#0C8F50"/>
<path d="M403.763 149.093C347.663 -60.2743 132.46 -184.522 -76.9073 -128.422C-286.274 -72.3226 -410.522 142.881 -354.422 352.248" stroke="#FFC700" stroke-width="19" stroke-linecap="round"/>
<path d="M1156.9 512.469V436.013H1179.76C1187.45 436.013 1193.99 437.155 1199.39 439.441C1204.79 441.726 1209.12 444.773 1212.38 448.582C1215.7 452.391 1218.12 456.65 1219.65 461.36C1221.17 466.069 1221.93 470.813 1221.93 475.591C1221.93 481.27 1220.89 486.395 1218.82 490.965C1216.81 495.467 1214.04 499.345 1210.51 502.6C1206.98 505.786 1202.89 508.244 1198.25 509.976C1193.61 511.638 1188.69 512.469 1183.5 512.469H1156.9ZM1171.97 497.925H1180.9C1184.71 497.925 1188.17 497.441 1191.29 496.471C1194.41 495.432 1197.07 493.943 1199.29 492.004C1201.57 490.065 1203.3 487.641 1204.48 484.733C1205.73 481.755 1206.35 478.361 1206.35 474.552C1206.35 469.566 1205.52 465.515 1203.86 462.398C1202.27 459.213 1200.26 456.754 1197.83 455.023C1195.48 453.291 1193.06 452.114 1190.56 451.491C1188.07 450.798 1185.96 450.452 1184.23 450.452H1171.97V497.925Z" fill="black"/>
<path d="M1103.66 436.013C1108.44 436.013 1112.7 436.636 1116.44 437.883C1120.18 439.06 1123.29 440.791 1125.79 443.077C1128.35 445.293 1130.29 447.994 1131.6 451.179C1132.92 454.296 1133.58 457.828 1133.58 461.775C1133.58 464.891 1133.09 468.008 1132.12 471.124C1131.22 474.241 1129.7 477.08 1127.55 479.642C1125.48 482.205 1122.71 484.282 1119.24 485.875C1115.78 487.399 1111.49 488.161 1106.36 488.161H1095.56V512.469H1080.5V436.013H1103.66ZM1106.26 473.617C1108.54 473.617 1110.45 473.237 1111.97 472.475C1113.5 471.713 1114.67 470.743 1115.5 469.566C1116.4 468.389 1117.03 467.177 1117.37 465.93C1117.79 464.614 1118 463.403 1118 462.294C1118 461.463 1117.86 460.425 1117.58 459.178C1117.37 457.862 1116.89 456.546 1116.13 455.231C1115.36 453.915 1114.19 452.807 1112.59 451.906C1111.07 451.006 1108.99 450.556 1106.36 450.556H1095.56V473.617H1106.26ZM1120.39 482.967L1139.29 512.469H1121.74L1102.41 483.382L1120.39 482.967Z" fill="black"/>
<path d="M1040.51 436.013H1055.57V512.469H1040.51V436.013Z" fill="black"/>
<path d="M990.491 436.013C998.456 436.013 1004.79 437.64 1009.5 440.895C1014.21 444.081 1016.57 448.859 1016.57 455.231C1016.57 459.94 1015.39 463.887 1013.03 467.073C1010.75 470.189 1007.6 472.544 1003.58 474.137C999.633 475.66 995.097 476.422 989.972 476.422L987.583 468.32C993.885 468.32 999.46 469.185 1004.31 470.917C1009.22 472.648 1013.1 475.141 1015.94 478.396C1018.78 481.582 1020.2 485.425 1020.2 489.927C1020.2 494.082 1019.44 497.614 1017.92 500.522C1016.46 503.362 1014.45 505.682 1011.89 507.482C1009.4 509.214 1006.56 510.495 1003.37 511.326C1000.19 512.088 996.897 512.469 993.504 512.469H968.053V436.013H990.491ZM992.257 467.281C995.235 467.281 997.417 466.38 998.802 464.58C1000.26 462.779 1000.98 460.736 1000.98 458.451C1000.98 455.819 1000.08 453.846 998.282 452.53C996.551 451.214 994.197 450.556 991.219 450.556H983.116V467.281H992.257ZM992.777 498.445C994.993 498.445 997.001 498.168 998.802 497.614C1000.6 496.99 1002.02 496.056 1003.06 494.809C1004.1 493.493 1004.62 491.866 1004.62 489.927C1004.62 487.711 1004 486.048 1002.75 484.94C1001.5 483.763 999.875 482.967 997.867 482.551C995.928 482.066 993.885 481.824 991.738 481.824H983.116V498.445H992.777Z" fill="black"/>
<path d="M896.798 436.013H948.323V450.556H929.728V512.469H914.665V450.556H896.798V436.013Z" fill="black"/>
<path d="M822.033 512.469L856.521 433H857.352L891.841 512.469H874.389L852.366 456.581L863.274 449.101L836.888 512.469H822.033ZM845.614 484.836H868.572L873.869 497.51H840.939L845.614 484.836Z" fill="black"/>
<path d="M810.371 506.131C809.54 506.824 807.982 507.758 805.696 508.936C803.48 510.113 800.745 511.152 797.49 512.052C794.235 512.952 790.634 513.368 786.686 513.299C780.661 513.16 775.259 512.087 770.481 510.078C765.772 508.001 761.755 505.196 758.431 501.664C755.176 498.132 752.683 494.081 750.951 489.51C749.22 484.939 748.354 480.057 748.354 474.863C748.354 469.046 749.22 463.713 750.951 458.865C752.752 454.018 755.28 449.828 758.535 446.296C761.859 442.764 765.806 440.028 770.377 438.089C774.948 436.15 780.003 435.181 785.544 435.181C790.668 435.181 795.204 435.873 799.152 437.258C803.099 438.643 806.32 440.132 808.813 441.725L802.892 455.957C801.16 454.641 798.84 453.29 795.932 451.905C793.092 450.451 789.803 449.724 786.063 449.724C783.154 449.724 780.35 450.347 777.649 451.594C775.017 452.771 772.662 454.468 770.585 456.684C768.576 458.9 766.984 461.497 765.806 464.475C764.629 467.384 764.04 470.569 764.04 474.032C764.04 477.702 764.56 481.061 765.599 484.108C766.707 487.155 768.265 489.787 770.273 492.003C772.281 494.15 774.671 495.812 777.441 496.989C780.28 498.167 783.466 498.755 786.998 498.755C791.084 498.755 794.581 498.098 797.49 496.782C800.398 495.466 802.615 494.081 804.138 492.627L810.371 506.131Z" fill="black"/>
<path d="M262.799 362.52C191.134 486.646 32.4145 529.175 -91.7118 457.511C-215.838 385.846 -258.367 227.127 -186.703 103" stroke="#FFC700" stroke-width="31" stroke-linecap="round"/>
<path fill-rule="evenodd" clip-rule="evenodd" d="M544.769 490.36C437.333 526.908 321.003 478.22 270.259 379.824C377.695 343.276 494.024 391.964 544.769 490.36Z" fill="#00B05B"/>
<path fill-rule="evenodd" clip-rule="evenodd" d="M456.357 272.473C388.359 250.257 311.8 277.781 274.606 342.202L284.97 348.186C352.967 370.401 429.526 342.877 466.72 278.456L456.357 272.473Z" fill="#00B05B"/>
<path fill-rule="evenodd" clip-rule="evenodd" d="M254.654 219.608C227.13 253.419 221.777 302.04 244.872 342.042L273.122 325.732C300.647 291.921 306 243.3 282.905 203.298L254.654 219.608Z" fill="#00B05B"/>
<path fill-rule="evenodd" clip-rule="evenodd" d="M445.257 611.145C331.857 615.476 234.286 535.581 213.769 426.788C327.169 422.457 424.74 502.352 445.257 611.145Z" fill="#00B05B"/>
<path fill-rule="evenodd" clip-rule="evenodd" d="M328.045 707.569C217.212 683.19 142.917 581.291 150.47 470.839C261.303 495.217 335.598 597.116 328.045 707.569Z" fill="#00B05B"/>
<path fill-rule="evenodd" clip-rule="evenodd" d="M175.121 766.353C77.553 708.399 39.0206 588.322 80.8809 485.831C178.449 543.786 216.981 663.862 175.121 766.353Z" fill="#00B05B"/>
<path fill-rule="evenodd" clip-rule="evenodd" d="M15.2693 776.19C-62.3432 693.399 -65.9799 567.346 2.71878 480.53C80.3313 563.32 83.968 689.374 15.2693 776.19Z" fill="#00B05B"/>
<path fill-rule="evenodd" clip-rule="evenodd" d="M-176.095 731.187C-204.106 621.216 -146.446 509.063 -44.3745 466.19C-16.3633 576.161 -74.0232 688.314 -176.095 731.187Z" fill="#00B05B"/>
<path fill-rule="evenodd" clip-rule="evenodd" d="M185.903 469.235C236.682 269.893 132.165 66.5933 -52.8582 -11.1218C-103.638 188.22 0.879867 391.52 185.903 469.235Z" fill="#0C8F50"/>
<path fill-rule="evenodd" clip-rule="evenodd" d="M223.017 217.052C221.29 77.4188 117.037 -37.5241 -17.9397 -55.9747C-16.2125 83.6582 88.0403 198.601 223.017 217.052Z" fill="#00B05B"/>
<path d="M475.1 91.55L490.85 118.83C493.888 124.091 492.085 130.818 486.824 133.856L370.776 200.856C365.515 203.894 358.788 202.091 355.75 196.83L340 169.55C318.461 132.243 331.243 84.5391 368.55 63C405.857 41.4609 453.561 54.2432 475.1 91.55Z" fill="#FFC700"/>
<path d="M400.667 171.236L422.917 209.774M447.433 144.236L469.683 182.774" stroke="#FFC700" stroke-width="15" stroke-linecap="round"/>
</g>
<defs>
<clipPath id="clip0_41_1750">
<rect width="1968" height="600" fill="white"/>
</clipPath>
</defs>
</svg>
