<svg width="50" height="50" viewBox="0 0 50 50" fill="none" xmlns="http://www.w3.org/2000/svg">
<path d="M25.6254 12.6799C18.3573 12.6799 12.4653 18.5719 12.4653 25.84C12.4653 33.1081 18.3573 39 25.6254 39L25.6254 12.6799Z" fill="#9747FF"/>
<path d="M13.4961 8.99997C9.90838 15.214 12.0375 23.1598 18.2515 26.7475L24.7475 15.496L13.4961 8.99997Z" fill="#9747FF"/>
<ellipse cx="25.5137" cy="25.8403" rx="8.81053" ry="8.81053" fill="white"/>
<path d="M25.6251 39C32.8932 39 38.7852 33.1081 38.7852 25.84L25.6251 25.84L25.6251 39Z" fill="#FFC700"/>
<path d="M40.9038 27.9592C40.9038 19.5208 34.0632 12.6802 25.6248 12.6802L25.6248 27.9592L40.9038 27.9592Z" fill="#FFE600"/>
<ellipse cx="22.2792" cy="25.3945" rx="1.33831" ry="1.33831" fill="black"/>
</svg>
