<svg width="1000" height="1000" viewBox="0 0 1000 1000" fill="none" xmlns="http://www.w3.org/2000/svg">
<path d="M500.606 251.131C371.982 251.131 267.711 355.402 267.711 484.026C267.711 612.65 371.981 716.921 500.606 716.921L500.606 251.131Z" fill="#9747FF"/>
<path d="M285.962 186C222.47 295.97 260.149 436.589 370.119 500.081L485.081 300.962L285.962 186Z" fill="#9747FF"/>
<ellipse cx="498.632" cy="484.026" rx="155.921" ry="155.921" fill="white"/>
<path d="M500.605 716.921C629.229 716.921 733.5 612.65 733.5 484.026L500.605 484.026L500.605 716.921Z" fill="#FFC700"/>
<path d="M771 521.527C771 372.192 649.94 251.132 500.605 251.132L500.605 521.527L771 521.527Z" fill="#FFE600"/>
<circle cx="441.394" cy="476.131" r="23.6842" fill="black"/>
</svg>
