<svg width="500" height="500" viewBox="0 0 500 500" fill="none" xmlns="http://www.w3.org/2000/svg">
<path d="M250.158 115.947C171.269 115.947 107.316 179.9 107.316 258.789C107.316 337.679 171.268 401.631 250.158 401.631L250.158 115.947Z" fill="#9747FF"/>
<path d="M118.51 76.0002C79.5683 143.449 102.678 229.695 170.126 268.636L240.636 146.51L118.51 76.0002Z" fill="#9747FF"/>
<ellipse cx="248.947" cy="258.789" rx="95.6316" ry="95.6315" fill="white"/>
<path d="M250.158 401.631C329.047 401.631 393 337.679 393 258.789L250.158 258.789L250.158 401.631Z" fill="#FFC700"/>
<path d="M416 281.789C416 190.197 341.75 115.947 250.158 115.947L250.158 281.789L416 281.789Z" fill="#FFE600"/>
<circle cx="213.842" cy="253.947" r="14.5263" fill="black"/>
</svg>
