<svg width="100" height="100" viewBox="0 0 100 100" fill="none" xmlns="http://www.w3.org/2000/svg">
<path d="M51.2003 21.141C35.1222 21.141 22.0884 34.1748 22.0884 50.2529C22.0884 66.3309 35.1222 79.3647 51.2003 79.3647L51.2003 21.141Z" fill="#9747FF"/>
<path d="M24.3702 13.0002C16.4338 26.7465 21.1436 44.3239 34.8899 52.2603L49.2601 27.3704L24.3702 13.0002Z" fill="#9747FF"/>
<ellipse cx="50.9535" cy="50.2533" rx="19.4902" ry="19.4902" fill="white"/>
<path d="M51.2006 79.3647C67.2787 79.3647 80.3125 66.3309 80.3125 50.2529L51.2006 50.2529L51.2006 79.3647Z" fill="#FFC700"/>
<path d="M84.9995 54.9405C84.9995 36.2736 69.867 21.1411 51.2001 21.1411L51.2001 54.9405L84.9995 54.9405Z" fill="#FFE600"/>
<ellipse cx="43.7989" cy="49.2662" rx="2.96053" ry="2.96053" fill="black"/>
</svg>
