<svg width="250" height="250" viewBox="0 0 250 250" fill="none" xmlns="http://www.w3.org/2000/svg">
<path d="M125.869 58.7093C82.9947 58.7093 48.2378 93.4662 48.2378 136.341C48.2378 179.216 82.9947 213.973 125.869 213.973L125.869 58.7093Z" fill="#9747FF"/>
<path d="M54.3206 36.9999C33.1567 73.6568 45.7163 120.53 82.3731 141.694L120.694 75.3205L54.3206 36.9999Z" fill="#9747FF"/>
<ellipse cx="125.211" cy="136.341" rx="51.9738" ry="51.9737" fill="white"/>
<path d="M125.868 213.973C168.743 213.973 203.5 179.216 203.5 136.341L125.868 136.341L125.868 213.973Z" fill="#FFC700"/>
<path d="M216 148.842C216 99.0633 175.647 58.71 125.868 58.71L125.868 148.842L216 148.842Z" fill="#FFE600"/>
<ellipse cx="106.132" cy="133.709" rx="7.89475" ry="7.89475" fill="black"/>
</svg>
