<svg width="100" height="100" viewBox="0 0 100 100" fill="none" xmlns="http://www.w3.org/2000/svg">
<path d="M86.7753 75.1637C87.1516 75.3347 87.5336 75.5628 87.9213 75.8479C88.3204 76.1215 88.6739 76.4807 88.9818 76.9254C89.3011 77.3587 89.5633 77.889 89.7686 78.5161C89.9738 79.1319 90.0764 79.8673 90.0764 80.7225C90.0764 81.7716 89.9168 82.6553 89.5975 83.3737C89.2782 84.0806 88.862 84.6679 88.3489 85.1354C87.8472 85.6029 87.2828 85.9621 86.6556 86.213C86.0285 86.4638 85.4013 86.652 84.7742 86.7774C84.1584 86.8914 83.5712 86.9598 83.0124 86.9826C82.4651 86.9941 82.0204 86.9998 81.6783 86.9998H80.3955V74.4282H81.6783C82.0432 74.4282 82.4309 74.4339 82.8414 74.4453C83.2633 74.4453 83.6966 74.4681 84.1413 74.5137C84.586 74.5594 85.0307 74.6335 85.4754 74.7361C85.9201 74.8387 86.3534 74.9813 86.7753 75.1637ZM82.9782 84.3828C83.7878 84.3258 84.4777 84.2175 85.0478 84.0578C85.618 83.8868 86.0855 83.653 86.4504 83.3566C86.8153 83.0601 87.0775 82.6952 87.2372 82.2619C87.4082 81.8286 87.4937 81.3155 87.4937 80.7225C87.4937 80.027 87.4025 79.4511 87.2201 78.995C87.0376 78.5389 86.7582 78.174 86.382 77.9004C86.0057 77.6153 85.5324 77.41 84.9623 77.2846C84.4036 77.1592 83.7422 77.0794 82.9782 77.0452V84.3828Z" fill="black"/>
<path d="M76.0334 82.5356C76.3641 82.832 76.6492 83.1684 76.8886 83.5447C77.1281 83.9096 77.3219 84.2916 77.4702 84.6907C77.6298 85.0784 77.7438 85.4718 77.8123 85.8709C77.8807 86.27 77.9149 86.6463 77.9149 86.9998H76.6321H75.3322C75.3322 86.9199 75.3208 86.7888 75.298 86.6064C75.2866 86.4125 75.2523 86.2016 75.1953 85.9735C75.1383 85.7455 75.0528 85.5117 74.9388 85.2722C74.8247 85.0328 74.6651 84.8104 74.4599 84.6052C74.266 84.3999 74.0208 84.2346 73.7244 84.1092C73.4279 83.9837 73.0687 83.921 72.6468 83.921H69.551V86.9998H66.9854V74.4282H72.6468C72.6924 74.4282 72.8179 74.4396 73.0231 74.4624C73.2284 74.4738 73.4735 74.5251 73.7586 74.6164C74.0551 74.6962 74.3743 74.8216 74.7164 74.9927C75.0585 75.1637 75.3892 75.4089 75.7085 75.7281C76.6549 76.6746 77.1281 77.9745 77.1281 79.6279C77.1281 80.2778 77.0255 80.8423 76.8202 81.3212C76.6264 81.8001 76.3641 82.2049 76.0334 82.5356ZM72.6468 81.3383C72.7836 81.3383 72.9604 81.3212 73.177 81.287C73.3937 81.2414 73.6046 81.1615 73.8099 81.0475C74.0151 80.9221 74.1862 80.751 74.323 80.5344C74.4713 80.3063 74.5454 80.0042 74.5454 79.6279C74.5454 79.0349 74.4656 78.5674 74.3059 78.2253C74.1577 77.8719 73.9752 77.6096 73.7586 77.4385C73.5533 77.2561 73.3424 77.1421 73.1257 77.0965C72.9091 77.0395 72.7437 77.0109 72.6297 77.0109H69.551V81.3383H72.6468Z" fill="black"/>
<path d="M60.3784 74.4629H62.9782V87.0002H60.3784V74.4629Z" fill="black"/>
<path d="M55.6346 80.2954C56.0679 80.5463 56.4043 80.8484 56.6438 81.2019C56.8832 81.5554 57.0543 81.8975 57.1569 82.2282C57.2709 82.5474 57.3393 82.8268 57.3621 83.0663C57.3849 83.3057 57.3963 83.4369 57.3963 83.4597C57.3963 84.064 57.3051 84.5714 57.1227 84.9819C56.9516 85.381 56.7179 85.7117 56.4214 85.974C56.1363 86.2362 55.8057 86.4415 55.4294 86.5897C55.0531 86.7265 54.6654 86.8292 54.2663 86.8976C53.8672 86.9546 53.4681 86.9831 53.069 86.9831C52.6699 86.9945 52.305 87.0002 51.9743 87.0002H47.6299V74.4629H51.9743C52.3962 74.4629 52.8523 74.537 53.3427 74.6852C53.8444 74.8221 54.3062 75.0558 54.7281 75.3865C55.15 75.7058 55.5035 76.1277 55.7886 76.6522C56.0736 77.1653 56.2162 77.7925 56.2162 78.5337C56.2162 78.7617 56.199 78.9556 56.1648 79.1152C56.142 79.2634 56.1021 79.406 56.0451 79.5428C55.9995 79.6682 55.9425 79.788 55.8741 79.902C55.8057 80.016 55.7258 80.1472 55.6346 80.2954ZM50.3152 79.4915H51.9743C52.1112 79.4915 52.2708 79.4972 52.4532 79.5086C52.6357 79.5086 52.801 79.4915 52.9493 79.4573C53.1089 79.4117 53.24 79.3205 53.3427 79.1836C53.4567 79.0468 53.5137 78.8301 53.5137 78.5337C53.5137 78.2144 53.451 77.9635 53.3256 77.7811C53.2001 77.5986 53.0519 77.4618 52.8808 77.3706C52.7098 77.2794 52.5388 77.2224 52.3677 77.1996C52.1967 77.1767 52.0656 77.1653 51.9743 77.1653H50.3152V79.4915ZM52.1967 84.3149C52.9721 84.3149 53.5308 84.2464 53.8729 84.1096C54.2264 83.9614 54.4031 83.682 54.4031 83.2715C54.4031 82.8724 54.2264 82.6045 53.8729 82.4676C53.5308 82.3308 52.9721 82.2624 52.1967 82.2624H50.3152V84.3149H52.1967Z" fill="black"/>
<path d="M44.5935 74.4453V77.0451H41.6858V86.9997H39.0688V77.0451H36.1611V74.4453H44.5935Z" fill="black"/>
<path d="M31.3212 86.9997L30.6712 85.1525H25.6084L24.9584 86.9997H22.1191L26.6004 74.4453H29.6792L34.1604 86.9997H31.3212ZM26.532 82.5698H29.7476L28.1398 78.0714L26.532 82.5698Z" fill="black"/>
<path d="M20.5795 84.0065C20.3058 84.4512 19.9808 84.856 19.6046 85.2209C19.2283 85.5858 18.8121 85.8994 18.356 86.1616C17.8998 86.4239 17.4095 86.6292 16.885 86.7774C16.3605 86.9142 15.8188 86.9826 15.2601 86.9826C14.3935 86.9826 13.5782 86.8173 12.8142 86.4866C12.0616 86.1559 11.4003 85.7055 10.8301 85.1354C10.2714 84.5653 9.8267 83.9039 9.49602 83.1513C9.16534 82.3873 9 81.572 9 80.7054C9 79.8388 9.16534 79.0292 9.49602 78.2766C9.8267 77.5127 10.2714 76.8456 10.8301 76.2755C11.4003 75.7053 12.0616 75.2549 12.8142 74.9242C13.5782 74.5936 14.3935 74.4282 15.2601 74.4282C15.8188 74.4282 16.3605 74.5023 16.885 74.6506C17.4095 74.7874 17.8998 74.987 18.356 75.2492C18.8121 75.5115 19.2283 75.8308 19.6046 76.2071C19.9808 76.5719 20.3058 76.9767 20.5795 77.4214L18.6638 79.3371C18.527 78.995 18.3446 78.6814 18.1165 78.3964C17.8998 78.1113 17.6433 77.8662 17.3468 77.6609C17.0503 77.4557 16.7254 77.296 16.3719 77.182C16.0184 77.068 15.6478 77.0109 15.2601 77.0109C14.7584 77.0109 14.2795 77.1079 13.8234 77.3017C13.3787 77.4956 12.991 77.7635 12.6603 78.1056C12.3296 78.4363 12.0673 78.824 11.8735 79.2687C11.6796 79.7134 11.5827 80.1923 11.5827 80.7054C11.5827 81.2186 11.6796 81.6975 11.8735 82.1422C12.0673 82.5869 12.3296 82.9803 12.6603 83.3224C12.991 83.653 13.3787 83.9153 13.8234 84.1092C14.2795 84.303 14.7584 84.3999 15.2601 84.3999C15.6478 84.3999 16.0184 84.3429 16.3719 84.2289C16.7254 84.1149 17.0503 83.9552 17.3468 83.75C17.6433 83.5447 17.8998 83.3053 18.1165 83.0316C18.3446 82.7465 18.527 82.433 18.6638 82.0909L20.5795 84.0065Z" fill="black"/>
<path d="M49.6775 17.644C38.5308 17.644 29.4946 26.6802 29.4946 37.8269C29.4946 48.9736 38.5308 58.0098 49.6775 58.0098L49.6775 17.644Z" fill="#9747FF"/>
<path d="M31.0764 12C25.5742 21.5302 28.8395 33.7163 38.3696 39.2185L48.3323 21.9627L31.0764 12Z" fill="#9747FF"/>
<ellipse cx="49.5064" cy="37.8272" rx="13.5123" ry="13.5123" fill="white"/>
<path d="M49.6775 58.0098C60.8242 58.0098 69.8604 48.9736 69.8604 37.8269L49.6775 37.8269L49.6775 58.0098Z" fill="#FFC700"/>
<path d="M73.1099 41.0767C73.1099 28.1352 62.6187 17.644 49.6772 17.644L49.6772 41.0767L73.1099 41.0767Z" fill="#FFE600"/>
<ellipse cx="44.5461" cy="37.1428" rx="2.05249" ry="2.05249" fill="black"/>
</svg>
