<svg width="50" height="50" viewBox="0 0 50 50" fill="none" xmlns="http://www.w3.org/2000/svg">
<path d="M38.0001 37.4521V38.7774H36.5179V43.8518H35.1839V38.7774H33.7017V37.4521H38.0001Z" fill="black"/>
<path d="M31.2342 43.8518L30.9029 42.9102H28.3221L27.9908 43.8518H26.5435L28.8278 37.4521H30.3972L32.6816 43.8518H31.2342ZM28.7929 41.5936H30.4321L29.6125 39.3006L28.7929 41.5936Z" fill="black"/>
<path d="M24.0641 37.4609H25.4069V43.8606H24.0641V41.5152H21.8408V43.8606H20.5068V37.4609H21.8408V40.1812H24.0641V37.4609Z" fill="black"/>
<path d="M18.9027 42.3259C18.7632 42.5526 18.5975 42.759 18.4057 42.945C18.2139 43.131 18.0017 43.2908 17.7692 43.4245C17.5367 43.5582 17.2868 43.6628 17.0194 43.7384C16.752 43.8082 16.4759 43.843 16.1911 43.843C15.7494 43.843 15.3338 43.7587 14.9443 43.5902C14.5607 43.4216 14.2236 43.192 13.9329 42.9014C13.6481 42.6108 13.4214 42.2736 13.2528 41.89C13.0843 41.5006 13 41.085 13 40.6432C13 40.2014 13.0843 39.7887 13.2528 39.4051C13.4214 39.0157 13.6481 38.6756 13.9329 38.385C14.2236 38.0944 14.5607 37.8648 14.9443 37.6962C15.3338 37.5276 15.7494 37.4434 16.1911 37.4434C16.4759 37.4434 16.752 37.4811 17.0194 37.5567C17.2868 37.6265 17.5367 37.7282 17.7692 37.8619C18.0017 37.9956 18.2139 38.1583 18.4057 38.3501C18.5975 38.5361 18.7632 38.7425 18.9027 38.9692L17.9262 39.9457C17.8564 39.7713 17.7634 39.6115 17.6472 39.4661C17.5367 39.3208 17.4059 39.1959 17.2548 39.0912C17.1037 38.9866 16.938 38.9052 16.7578 38.8471C16.5777 38.789 16.3887 38.7599 16.1911 38.7599C15.9354 38.7599 15.6912 38.8093 15.4587 38.9081C15.232 39.0069 15.0344 39.1435 14.8658 39.3179C14.6973 39.4865 14.5636 39.6841 14.4648 39.9108C14.366 40.1375 14.3166 40.3816 14.3166 40.6432C14.3166 40.9048 14.366 41.1489 14.4648 41.3756C14.5636 41.6023 14.6973 41.8028 14.8658 41.9772C15.0344 42.1457 15.232 42.2794 15.4587 42.3783C15.6912 42.4771 15.9354 42.5265 16.1911 42.5265C16.3887 42.5265 16.5777 42.4974 16.7578 42.4393C16.938 42.3812 17.1037 42.2998 17.2548 42.1952C17.4059 42.0905 17.5367 41.9685 17.6472 41.829C17.7634 41.6836 17.8564 41.5238 17.9262 41.3494L18.9027 42.3259Z" fill="black"/>
<path d="M35.3809 19.9537C36.8515 14.4652 33.5945 8.82375 28.106 7.35312C22.6175 5.88249 16.9761 9.13958 15.5055 14.628C14.1808 19.5718 16.692 24.6396 21.2146 26.6717L20.7515 28.4C27.1237 30.1074 33.6735 26.3258 35.3809 19.9537Z" fill="#9747FF"/>
</svg>
