<svg width="500" height="500" viewBox="0 0 500 500" fill="none" xmlns="http://www.w3.org/2000/svg">
<path d="M351.47 347.843V358.629H339.406V399.928H328.549V358.629H316.486V347.843H351.47Z" fill="black"/>
<path d="M296.403 399.928L293.707 392.264H272.702L270.006 399.928H258.226L276.818 347.843H289.591L308.183 399.928H296.403ZM276.534 381.549H289.875L283.204 362.887L276.534 381.549Z" fill="black"/>
<path d="M238.05 347.915H248.978V400.001H238.05V380.912H219.955V400.001H209.098V347.915H219.955V370.055H238.05V347.915Z" fill="black"/>
<path d="M196.041 387.511C194.905 389.356 193.557 391.035 191.996 392.549C190.435 394.063 188.708 395.364 186.816 396.452C184.923 397.54 182.889 398.391 180.713 399.006C178.537 399.574 176.29 399.858 173.972 399.858C170.376 399.858 166.994 399.172 163.824 397.8C160.702 396.428 157.958 394.56 155.593 392.194C153.275 389.829 151.43 387.085 150.058 383.963C148.686 380.793 148 377.411 148 373.815C148 370.22 148.686 366.861 150.058 363.739C151.43 360.569 153.275 357.802 155.593 355.436C157.958 353.071 160.702 351.202 163.824 349.83C166.994 348.458 170.376 347.772 173.972 347.772C176.29 347.772 178.537 348.08 180.713 348.695C182.889 349.263 184.923 350.091 186.816 351.179C188.708 352.267 190.435 353.591 191.996 355.152C193.557 356.666 194.905 358.346 196.041 360.191L188.093 368.138C187.525 366.719 186.768 365.418 185.822 364.235C184.923 363.053 183.859 362.036 182.629 361.184C181.399 360.333 180.051 359.67 178.584 359.197C177.118 358.724 175.58 358.488 173.972 358.488C171.89 358.488 169.903 358.89 168.011 359.694C166.166 360.498 164.558 361.61 163.186 363.029C161.814 364.401 160.726 366.009 159.921 367.854C159.117 369.699 158.715 371.686 158.715 373.815C158.715 375.944 159.117 377.931 159.921 379.776C160.726 381.621 161.814 383.253 163.186 384.672C164.558 386.044 166.166 387.132 168.011 387.936C169.903 388.741 171.89 389.143 173.972 389.143C175.58 389.143 177.118 388.906 178.584 388.433C180.051 387.96 181.399 387.298 182.629 386.446C183.859 385.595 184.923 384.601 185.822 383.466C186.768 382.283 187.525 380.982 188.093 379.563L196.041 387.511Z" fill="black"/>
<path d="M330.153 205.427C342.122 160.758 315.613 114.843 270.944 102.874C226.274 90.9048 180.36 117.414 168.391 162.083C157.609 202.319 178.047 243.565 214.856 260.104L211.087 274.17C262.949 288.066 316.256 257.289 330.153 205.427Z" fill="#9747FF"/>
</svg>
