<svg width="250" height="250" viewBox="0 0 250 250" fill="none" xmlns="http://www.w3.org/2000/svg">
<path d="M175.735 173.921V179.314H169.703V199.964H164.275V179.314H158.243V173.921H175.735Z" fill="black"/>
<path d="M148.202 199.964L146.854 196.132H136.351L135.003 199.964H129.113L138.409 173.921H144.796L154.092 199.964H148.202ZM138.267 190.774H144.938L141.602 181.443L138.267 190.774Z" fill="black"/>
<path d="M119.025 173.957H124.489V200H119.025V190.456H109.977V200H104.549V173.957H109.977V185.027H119.025V173.957Z" fill="black"/>
<path d="M98.0204 193.755C97.4527 194.677 96.7785 195.517 95.998 196.274C95.2174 197.031 94.354 197.681 93.4079 198.225C92.4617 198.769 91.4446 199.195 90.3566 199.503C89.2685 199.787 88.1449 199.928 86.9859 199.928C85.1882 199.928 83.497 199.586 81.9122 198.9C80.351 198.214 78.9791 197.279 77.7964 196.097C76.6374 194.914 75.7149 193.542 75.0289 191.981C74.343 190.396 74 188.705 74 186.907C74 185.109 74.343 183.43 75.0289 181.869C75.7149 180.284 76.6374 178.9 77.7964 177.718C78.9791 176.535 80.351 175.601 81.9122 174.915C83.497 174.229 85.1882 173.886 86.9859 173.886C88.1449 173.886 89.2685 174.039 90.3566 174.347C91.4446 174.631 92.4617 175.045 93.4079 175.589C94.354 176.133 95.2174 176.795 95.998 177.576C96.7785 178.333 97.4527 179.172 98.0204 180.095L94.0465 184.069C93.7627 183.359 93.3842 182.709 92.9112 182.117C92.4617 181.526 91.9295 181.017 91.3145 180.592C90.6995 180.166 90.0254 179.835 89.2921 179.598C88.5589 179.362 87.7901 179.243 86.9859 179.243C85.9451 179.243 84.9517 179.444 84.0055 179.846C83.083 180.249 82.2788 180.804 81.5928 181.514C80.9069 182.2 80.3629 183.004 79.9607 183.927C79.5586 184.849 79.3576 185.843 79.3576 186.907C79.3576 187.972 79.5586 188.965 79.9607 189.887C80.3629 190.81 80.9069 191.626 81.5928 192.336C82.2788 193.022 83.083 193.566 84.0055 193.968C84.9517 194.37 85.9451 194.571 86.9859 194.571C87.7901 194.571 88.5589 194.453 89.2921 194.216C90.0254 193.98 90.6995 193.648 91.3145 193.223C91.9295 192.797 92.4617 192.3 92.9112 191.732C93.3842 191.141 93.7627 190.491 94.0465 189.781L98.0204 193.755Z" fill="black"/>
<path d="M165.076 102.713C171.061 80.3788 157.806 57.4215 135.472 51.437C113.137 45.4524 90.1798 58.7068 84.1953 81.0415C78.8047 101.159 89.0236 121.783 107.428 130.052L105.543 137.085C131.474 144.033 158.128 128.644 165.076 102.713Z" fill="#9747FF"/>
</svg>
