<svg width="1000" height="1000" viewBox="0 0 1000 1000" fill="none" xmlns="http://www.w3.org/2000/svg">
<path d="M706.054 697.916V719.759H681.624V803.396H659.637V719.759H635.207V697.916H706.054Z" fill="black"/>
<path d="M594.537 803.396L589.076 787.876H546.539L541.078 803.396H517.223L554.874 697.916H580.741L618.392 803.396H594.537ZM554.299 766.176H581.316L567.807 728.382L554.299 766.176Z" fill="black"/>
<path d="M476.363 698.061H498.494V803.541H476.363V764.884H439.718V803.541H417.731V698.061H439.718V742.897H476.363V698.061Z" fill="black"/>
<path d="M391.289 778.248C388.99 781.984 386.259 785.385 383.098 788.451C379.936 791.517 376.439 794.151 372.607 796.355C368.775 798.558 364.655 800.283 360.248 801.528C355.841 802.678 351.291 803.253 346.596 803.253C339.315 803.253 332.465 801.864 326.046 799.085C319.723 796.307 314.167 792.523 309.377 787.732C304.682 782.942 300.946 777.386 298.167 771.063C295.389 764.644 294 757.794 294 750.513C294 743.231 295.389 736.429 298.167 730.106C300.946 723.687 304.682 718.083 309.377 713.293C314.167 708.503 319.723 704.718 326.046 701.94C332.465 699.162 339.315 697.772 346.596 697.772C351.291 697.772 355.841 698.395 360.248 699.641C364.655 700.79 368.775 702.467 372.607 704.67C376.439 706.874 379.936 709.556 383.098 712.718C386.259 715.784 388.99 719.185 391.289 722.921L375.194 739.016C374.044 736.142 372.511 733.507 370.595 731.112C368.775 728.717 366.619 726.657 364.129 724.933C361.638 723.208 358.907 721.867 355.937 720.909C352.967 719.951 349.854 719.472 346.596 719.472C342.381 719.472 338.357 720.286 334.525 721.915C330.789 723.544 327.531 725.795 324.753 728.669C321.975 731.448 319.771 734.705 318.143 738.441C316.514 742.178 315.7 746.201 315.7 750.513C315.7 754.824 316.514 758.848 318.143 762.584C319.771 766.32 321.975 769.625 324.753 772.5C327.531 775.278 330.789 777.481 334.525 779.11C338.357 780.739 342.381 781.553 346.596 781.553C349.854 781.553 352.967 781.074 355.937 780.116C358.907 779.158 361.638 777.817 364.129 776.092C366.619 774.368 368.775 772.356 370.595 770.057C372.511 767.661 374.044 765.027 375.194 762.153L391.289 778.248Z" fill="black"/>
<path d="M662.884 409.504C687.123 319.042 633.439 226.059 542.978 201.82C452.516 177.581 359.533 231.265 335.294 321.726C313.461 403.21 354.85 486.739 429.392 520.231L421.759 548.717C526.787 576.859 634.742 514.531 662.884 409.504Z" fill="#9747FF"/>
</svg>
