<svg width="100" height="100" viewBox="0 0 100 100" fill="none" xmlns="http://www.w3.org/2000/svg">
<path d="M75.0002 73.9043V76.5548H72.0357V86.7036H69.3677V76.5548H66.4033V73.9043H75.0002Z" fill="black"/>
<path d="M61.4684 86.7036L60.8058 84.8203H55.6442L54.9816 86.7036H52.0869L56.6556 73.9043H59.7944L64.3631 86.7036H61.4684ZM56.5859 82.1872H59.8642L58.225 77.6011L56.5859 82.1872Z" fill="black"/>
<path d="M47.1288 73.9219H49.8142V86.7212H47.1288V82.0304H42.6821V86.7212H40.0142V73.9219H42.6821V79.3625H47.1288V73.9219Z" fill="black"/>
<path d="M36.8054 83.6519C36.5264 84.1053 36.1951 84.518 35.8114 84.89C35.4278 85.262 35.0035 85.5817 34.5385 85.849C34.0735 86.1164 33.5736 86.3257 33.0388 86.4768C32.5041 86.6163 31.9519 86.6861 31.3822 86.6861C30.4987 86.6861 29.6675 86.5175 28.8886 86.1804C28.1214 85.8432 27.4471 85.384 26.8658 84.8028C26.2962 84.2215 25.8428 83.5473 25.5057 82.78C25.1686 82.0011 25 81.1699 25 80.2864C25 79.4029 25.1686 78.5775 25.5057 77.8102C25.8428 77.0313 26.2962 76.3513 26.8658 75.77C27.4471 75.1887 28.1214 74.7295 28.8886 74.3924C29.6675 74.0553 30.4987 73.8867 31.3822 73.8867C31.9519 73.8867 32.5041 73.9623 33.0388 74.1134C33.5736 74.2529 34.0735 74.4564 34.5385 74.7237C35.0035 74.9911 35.4278 75.3166 35.8114 75.7002C36.1951 76.0723 36.5264 76.4849 36.8054 76.9383L34.8524 78.8914C34.7128 78.5426 34.5268 78.2229 34.2943 77.9323C34.0735 77.6417 33.8119 77.3917 33.5096 77.1825C33.2074 76.9732 32.8761 76.8105 32.5157 76.6942C32.1553 76.578 31.7775 76.5198 31.3822 76.5198C30.8707 76.5198 30.3825 76.6186 29.9175 76.8163C29.4641 77.0139 29.0688 77.2871 28.7317 77.6358C28.3946 77.973 28.1272 78.3682 27.9295 78.8216C27.7319 79.275 27.6331 79.7633 27.6331 80.2864C27.6331 80.8095 27.7319 81.2978 27.9295 81.7512C28.1272 82.2045 28.3946 82.6056 28.7317 82.9544C29.0688 83.2915 29.4641 83.5589 29.9175 83.7565C30.3825 83.9541 30.8707 84.0529 31.3822 84.0529C31.7775 84.0529 32.1553 83.9948 32.5157 83.8786C32.8761 83.7623 33.2074 83.5996 33.5096 83.3903C33.8119 83.1811 34.0735 82.9369 34.2943 82.6579C34.5268 82.3673 34.7128 82.0476 34.8524 81.6988L36.8054 83.6519Z" fill="black"/>
<path d="M69.7618 38.9073C72.7031 27.9304 66.1889 16.6475 55.212 13.7062C44.2351 10.765 32.9522 17.2792 30.0109 28.2561C27.3616 38.1435 32.3839 48.2793 41.4291 52.3433L40.5029 55.8C53.2473 59.2148 66.347 51.6517 69.7618 38.9073Z" fill="#9747FF"/>
</svg>
